<?xml version="1.0" encoding="UTF-8" standalone="no"?>
<svg
   width="500"
   height="400"
   xmlns:xlink="http://www.w3.org/1999/xlink"
   xmlns="http://www.w3.org/2000/svg"
   xmlns:svg="http://www.w3.org/2000/svg">
	<defs>
		<circle id="roverCircle" r="32" stroke="black" stroke-width="4" />
		<svg id="charge">
			<path d="M 82 8 v 8" fill="none" stroke="black" stroke-width="2.2" />
			<path d="M 90 8 v 8" fill="none" stroke="black" stroke-width="2.2" />
			<path d="M 76 16 h 20 a 10 10 0 0 1 -20 0 z" fill="rgb(0,158,255)" stroke="black" stroke-width="2.2" />
			<path d="M 86 26 v 9 l 4 -3 l 2 2 l 2 -1" fill="none" stroke="black" stroke-width="2.2" />
		</svg>
	    <rect id="batteryRect" y="340" width="212" height="58" rx="10" fill="white" stroke="black" stroke-width="4px" />
	    <rect id="batteryMiniRect" y="356" width="16" height="26" rx="4" fill="white" stroke="black" stroke-width="4px" />
		<text id="batteryText" y="330" style="font:bold 25px sans-serif" />
		<rect id="batteryCell" y="6" width="28" height="42" rx="8" stroke="black" stroke-width="4px" />
		<svg id="batteryCells">
			<use xlink:href="#batteryCell" x="12"  fill="rgb(26, 26, 26)" />
			<use xlink:href="#batteryCell" x="46"  fill="rgb(26, 26, 26)" />
			<use xlink:href="#batteryCell" x="80"  fill="rgb(26, 26, 26)" />
			<use xlink:href="#batteryCell" x="114" fill="rgb(26, 26, 26)" />
			<use xlink:href="#batteryCell" x="148" fill="rgb(26, 26, 26)" />
			<use xlink:href="#batteryCell" x="182" fill="black" />
		</svg>
	</defs>

    <rect x="0" y="0" width="500" height="300" fill="rgb(127,127,127)" />
    <rect x="100" y="100" width="100" height="100" fill="red" />
	
	<path d="M 0 0   h 500" fill="none" stroke="black" stroke-width="8" />
	<path d="M 0 100 h 500" fill="none" stroke="black" stroke-width="4" />
	<path d="M 0 200 h 500" fill="none" stroke="black" stroke-width="4" />
	<path d="M 0 300 h 500" fill="none" stroke="black" stroke-width="4" />
	<path d="M 0   0 v 300" fill="none" stroke="black" stroke-width="8" />
	<path d="M 100 0 v 300" fill="none" stroke="black" stroke-width="4" />
	<path d="M 200 0 v 300" fill="none" stroke="black" stroke-width="4" />
	<path d="M 300 0 v 300" fill="none" stroke="black" stroke-width="4" />
	<path d="M 400 0 v 300" fill="none" stroke="black" stroke-width="4" />
	<path d="M 500 0 v 300" fill="none" stroke="black" stroke-width="8" />
	
	<use id="rover1" xlink:href="#roverCircle" x="50" y="50" fill="rgb(255,199,37)" />
	<use id="rover2" xlink:href="#roverCircle" x="350" y="150" fill="rgb(16,86,254)" />
	
	<use xlink:href="#charge" x="0" y="0" />
	<use xlink:href="#charge" x="300" y="100" />
	
	<use xlink:href="#batteryRect" x="5" />
	<use xlink:href="#batteryRect" x="265" />
	
	<use xlink:href="#batteryMiniRect" x="217" />
	<use xlink:href="#batteryMiniRect" x="477" />
	
	<text x="18" y="330" style="font:bold 25px sans-serif">Rover 1 Battery</text>
	<text x="278" y="330" style="font:bold 25px sans-serif">Rover 2 Battery</text>
	
	<use xlink:href="#batteryCells" x="0" y="342" />
	<use xlink:href="#batteryCells" x="260" y="342" />
	
	<svg x="10" y="344">
		<rect id="battery1" width="34" height="50" fill="white" transform="scale(0)" />
	</svg>
	<svg x="270" y="344">
		<rect id="battery2" width="34" height="50" fill="white" transform="scale(0)" />
	</svg>
</svg>
